<svg width="10" height="12" viewBox="0 0 10 12" fill="none" xmlns="http://www.w3.org/2000/svg">
<path d="M4.66667 5.83321C4.9875 5.83321 5.26215 5.71898 5.49062 5.4905C5.7191 5.26203 5.83333 4.98738 5.83333 4.66654C5.83333 4.34571 5.7191 4.07106 5.49062 3.84259C5.26215 3.61411 4.9875 3.49988 4.66667 3.49988C4.34583 3.49988 4.07118 3.61411 3.84271 3.84259C3.61424 4.07106 3.5 4.34571 3.5 4.66654C3.5 4.98738 3.61424 5.26203 3.84271 5.4905C4.07118 5.71898 4.34583 5.83321 4.66667 5.83321V5.83321M4.66667 10.1207C5.85278 9.03182 6.73264 8.04259 7.30625 7.153C7.87986 6.26342 8.16667 5.47349 8.16667 4.78321C8.16667 3.72349 7.82882 2.85578 7.15312 2.18009C6.47743 1.50439 5.64861 1.16654 4.66667 1.16654C3.68472 1.16654 2.8559 1.50439 2.18021 2.18009C1.50451 2.85578 1.16667 3.72349 1.16667 4.78321C1.16667 5.47349 1.45347 6.26342 2.02708 7.153C2.60069 8.04259 3.48056 9.03182 4.66667 10.1207V10.1207M4.66667 11.6665C3.10139 10.3346 1.93229 9.09745 1.15937 7.95509C0.386458 6.81273 0 5.75543 0 4.78321C0 3.32488 0.469097 2.16307 1.40729 1.29779C2.34549 0.432517 3.43194 -0.00012207 4.66667 -0.00012207C5.90139 -0.00012207 6.98785 0.432517 7.92604 1.29779C8.86424 2.16307 9.33333 3.32488 9.33333 4.78321C9.33333 5.75543 8.94688 6.81273 8.17396 7.95509C7.40104 9.09745 6.23194 10.3346 4.66667 11.6665V11.6665M4.66667 4.66654V4.66654V4.66654V4.66654V4.66654V4.66654V4.66654V4.66654V4.66654V4.66654" fill="#FFDEA5"/>
</svg>
